<svg xmlns="http://www.w3.org/2000/svg" width="271" height="270" fill="none" viewBox="0 0 271 270">
  <path fill="#24CB71" d="M52.17 218.775c0-23.134 18.755-41.888 41.889-41.888h41.886v41.888c0 23.134-18.752 41.888-41.886 41.888-23.134 0-41.888-18.754-41.888-41.888Z"/>
  <path fill="#FE7E6E" d="M135.945 9.337V93.11h41.888c23.134 0 41.888-18.752 41.888-41.886 0-23.134-18.754-41.888-41.888-41.888h-41.888Z"/>
  <path fill="#00B6FF" d="M177.485 176.887c23.134 0 41.888-18.754 41.888-41.888 0-23.134-18.754-41.888-41.888-41.888-23.134 0-41.887 18.754-41.887 41.888 0 23.134 18.753 41.888 41.887 41.888Z"/>
  <path fill="#FF3737" d="M52.17 51.225c0 23.134 18.755 41.888 41.889 41.888h41.886V9.337H94.059c-23.134 0-41.888 18.754-41.888 41.888Z"/>
  <path fill="#874FFF" d="M52.17 134.999c0 23.134 18.755 41.888 41.889 41.888h41.886V93.113H94.059c-23.134 0-41.888 18.752-41.888 41.886Z"/>
</svg>
