<svg xmlns="http://www.w3.org/2000/svg" width="485" height="484" fill="none" viewBox="0 0 485 484">
  <g opacity=".5">
    <path fill="url(#a)" d="M466.897 112.768a256.498 256.498 0 0 1 3.909 7.021 8.623 8.623 0 0 1-3.909-7.021Z"/>
    <path fill="url(#b)" d="M419.649 53.193a260.785 260.785 0 0 1 11.695 11.695 8.629 8.629 0 1 1-11.695-11.695Z"/>
    <path fill="url(#c)" d="M364.748 13.73a259.34 259.34 0 0 1 7.021 3.91 8.623 8.623 0 0 1-7.021-3.91Z"/>
    <path fill="url(#d)" d="M113.304 17.64a259.34 259.34 0 0 1 7.021-3.91 8.621 8.621 0 0 1-7.021 3.91Z"/>
    <path fill="url(#e)" d="M53.73 64.888a260.472 260.472 0 0 1 11.695-11.695A8.63 8.63 0 1 1 53.73 64.888Z"/>
    <path fill="url(#f)" d="M14.267 119.789a257.831 257.831 0 0 1 3.909-7.021 8.623 8.623 0 0 1-3.909 7.021Z"/>
    <path fill="url(#g)" d="M470.806 364.211a256.498 256.498 0 0 1-3.909 7.021 8.623 8.623 0 0 1 3.909-7.021Z"/>
    <path fill="url(#h)" d="M431.344 419.112a8.63 8.63 0 1 0-11.695 11.695 260.572 260.572 0 0 0 11.695-11.695Z"/>
    <path fill="url(#i)" d="M371.769 466.361a8.622 8.622 0 0 0-7.021 3.908 257.963 257.963 0 0 0 7.021-3.908Z"/>
    <path fill="url(#j)" d="M120.325 470.269a8.621 8.621 0 0 0-7.021-3.908 257.963 257.963 0 0 0 7.021 3.908Z"/>
    <path fill="url(#k)" d="M65.425 430.807a8.63 8.63 0 1 0-11.695-11.695 260.26 260.26 0 0 0 11.695 11.695Z"/>
    <path fill="url(#l)" d="M18.176 371.232a8.623 8.623 0 0 0-3.909-7.021 257.831 257.831 0 0 0 3.909 7.021Z"/>
    <path fill="url(#m)" d="M173.503 9.012a8.629 8.629 0 1 1-17.258 0 8.629 8.629 0 1 1 17.258 0Z"/>
    <path fill="url(#n)" d="M225.278 9.012a8.629 8.629 0 1 1-17.258 0 8.629 8.629 0 1 1 17.258 0Z"/>
    <path fill="url(#o)" d="M277.053 9.012a8.629 8.629 0 1 1-17.258 0 8.629 8.629 0 1 1 17.258 0Z"/>
    <path fill="url(#p)" d="M328.828 9.012a8.629 8.629 0 1 1-17.258 0 8.629 8.629 0 1 1 17.258 0Z"/>
    <path fill="url(#q)" d="M121.728 60.788a8.629 8.629 0 1 1-17.258 0 8.629 8.629 0 1 1 17.258 0Z"/>
    <path fill="url(#r)" d="M173.503 60.788a8.629 8.629 0 1 1-17.258 0 8.629 8.629 0 1 1 17.258 0Z"/>
    <path fill="url(#s)" d="M225.278 60.788a8.629 8.629 0 1 1-17.258 0 8.629 8.629 0 1 1 17.258 0Z"/>
    <path fill="url(#t)" d="M277.053 60.788a8.629 8.629 0 1 1-17.258 0 8.629 8.629 0 1 1 17.258 0Z"/>
    <path fill="url(#u)" d="M328.828 60.788a8.629 8.629 0 1 1-17.258 0 8.629 8.629 0 1 1 17.258 0Z"/>
    <path fill="url(#v)" d="M380.603 60.788a8.629 8.629 0 1 1-17.258 0 8.629 8.629 0 1 1 17.258 0Z"/>
    <path fill="url(#w)" d="M69.953 112.562a8.63 8.63 0 1 1-17.26 0 8.63 8.63 0 0 1 17.26 0Z"/>
    <path fill="url(#x)" d="M121.728 112.562a8.63 8.63 0 1 1-17.259.001 8.63 8.63 0 0 1 17.259-.001Z"/>
    <path fill="url(#y)" d="M173.503 112.562a8.63 8.63 0 1 1-17.259.001 8.63 8.63 0 0 1 17.259-.001Z"/>
    <path fill="url(#z)" d="M225.278 112.562a8.63 8.63 0 1 1-17.259.001 8.63 8.63 0 0 1 17.259-.001Z"/>
    <path fill="url(#A)" d="M277.053 112.562a8.63 8.63 0 1 1-17.259.001 8.63 8.63 0 0 1 17.259-.001Z"/>
    <path fill="url(#B)" d="M328.828 112.562a8.63 8.63 0 1 1-17.259.001 8.63 8.63 0 0 1 17.259-.001Z"/>
    <path fill="url(#C)" d="M380.603 112.562a8.63 8.63 0 1 1-17.259.001 8.63 8.63 0 0 1 17.259-.001Z"/>
    <path fill="url(#D)" d="M432.378 112.562a8.63 8.63 0 1 1-17.259.001 8.63 8.63 0 0 1 17.259-.001Z"/>
    <path fill="url(#E)" d="M18.178 164.338a8.63 8.63 0 1 1-17.259-.001 8.63 8.63 0 0 1 17.26.001Z"/>
    <path fill="url(#F)" d="M69.953 164.338a8.63 8.63 0 1 1-17.259-.001 8.63 8.63 0 0 1 17.26.001Z"/>
    <path fill="url(#G)" d="M121.728 164.338a8.63 8.63 0 0 1-17.258 0 8.63 8.63 0 1 1 17.258 0Z"/>
    <path fill="url(#H)" d="M173.503 164.338a8.63 8.63 0 0 1-17.258 0 8.63 8.63 0 1 1 17.258 0Z"/>
    <path fill="url(#I)" d="M225.278 164.338a8.63 8.63 0 0 1-17.258 0 8.63 8.63 0 1 1 17.258 0Z"/>
    <path fill="url(#J)" d="M277.053 164.338a8.63 8.63 0 0 1-17.258 0 8.63 8.63 0 1 1 17.258 0Z"/>
    <path fill="url(#K)" d="M328.828 164.338a8.63 8.63 0 0 1-17.258 0 8.63 8.63 0 1 1 17.258 0Z"/>
    <path fill="url(#L)" d="M380.603 164.338a8.63 8.63 0 0 1-17.258 0 8.63 8.63 0 1 1 17.258 0Z"/>
    <path fill="url(#M)" d="M432.378 164.338a8.63 8.63 0 0 1-17.258 0 8.63 8.63 0 1 1 17.258 0Z"/>
    <path fill="url(#N)" d="M484.153 164.338a8.63 8.63 0 0 1-17.258 0 8.63 8.63 0 1 1 17.258 0Z"/>
    <path fill="url(#O)" d="M18.178 216.113a8.63 8.63 0 1 1-17.259-.001 8.63 8.63 0 0 1 17.26.001Z"/>
    <path fill="url(#P)" d="M69.953 216.113a8.63 8.63 0 1 1-17.259-.001 8.63 8.63 0 0 1 17.26.001Z"/>
    <path fill="url(#Q)" d="M121.728 216.113a8.63 8.63 0 0 1-17.258 0 8.63 8.63 0 1 1 17.258 0Z"/>
    <path fill="url(#R)" d="M173.503 216.113a8.63 8.63 0 0 1-17.258 0 8.63 8.63 0 1 1 17.258 0Z"/>
    <path fill="url(#S)" d="M225.278 216.113a8.63 8.63 0 0 1-17.258 0 8.63 8.63 0 1 1 17.258 0Z"/>
    <path fill="url(#T)" d="M277.053 216.113a8.63 8.63 0 0 1-17.258 0 8.63 8.63 0 1 1 17.258 0Z"/>
    <path fill="url(#U)" d="M328.828 216.113a8.63 8.63 0 0 1-17.258 0 8.63 8.63 0 1 1 17.258 0Z"/>
    <path fill="url(#V)" d="M380.603 216.113a8.63 8.63 0 0 1-17.258 0 8.63 8.63 0 1 1 17.258 0Z"/>
    <path fill="url(#W)" d="M432.378 216.113a8.63 8.63 0 0 1-17.258 0 8.63 8.63 0 1 1 17.258 0Z"/>
    <path fill="url(#X)" d="M484.153 216.113a8.63 8.63 0 0 1-17.258 0 8.63 8.63 0 1 1 17.258 0Z"/>
    <path fill="url(#Y)" d="M18.178 267.888a8.63 8.63 0 1 1-17.259-.001 8.63 8.63 0 0 1 17.26.001Z"/>
    <path fill="url(#Z)" d="M69.953 267.888a8.63 8.63 0 1 1-17.259-.001 8.63 8.63 0 0 1 17.26.001Z"/>
    <path fill="url(#aa)" d="M121.728 267.888a8.63 8.63 0 0 1-17.258 0 8.63 8.63 0 1 1 17.258 0Z"/>
    <path fill="url(#ab)" d="M173.503 267.888a8.63 8.63 0 0 1-17.258 0 8.63 8.63 0 1 1 17.258 0Z"/>
    <path fill="url(#ac)" d="M225.278 267.888a8.63 8.63 0 0 1-17.258 0 8.63 8.63 0 1 1 17.258 0Z"/>
    <path fill="url(#ad)" d="M277.053 267.888a8.63 8.63 0 0 1-17.258 0 8.63 8.63 0 1 1 17.258 0Z"/>
    <path fill="url(#ae)" d="M328.828 267.888a8.63 8.63 0 0 1-17.258 0 8.63 8.63 0 1 1 17.258 0Z"/>
    <path fill="url(#af)" d="M380.603 267.888a8.63 8.63 0 0 1-17.258 0 8.63 8.63 0 1 1 17.258 0Z"/>
    <path fill="url(#ag)" d="M432.378 267.888a8.63 8.63 0 0 1-17.258 0 8.63 8.63 0 1 1 17.258 0Z"/>
    <path fill="url(#ah)" d="M484.153 267.888a8.63 8.63 0 0 1-17.258 0 8.63 8.63 0 1 1 17.258 0Z"/>
    <path fill="url(#ai)" d="M18.178 319.663a8.63 8.63 0 1 1-17.259-.001 8.63 8.63 0 0 1 17.26.001Z"/>
    <path fill="url(#aj)" d="M69.953 319.663a8.63 8.63 0 1 1-17.259-.001 8.63 8.63 0 0 1 17.26.001Z"/>
    <path fill="url(#ak)" d="M121.728 319.663a8.63 8.63 0 0 1-17.258 0 8.63 8.63 0 1 1 17.258 0Z"/>
    <path fill="url(#al)" d="M173.503 319.663a8.63 8.63 0 0 1-17.258 0 8.63 8.63 0 1 1 17.258 0Z"/>
    <path fill="url(#am)" d="M225.278 319.663a8.63 8.63 0 0 1-17.258 0 8.63 8.63 0 1 1 17.258 0Z"/>
    <path fill="url(#an)" d="M277.053 319.663a8.63 8.63 0 0 1-17.258 0 8.63 8.63 0 1 1 17.258 0Z"/>
    <path fill="url(#ao)" d="M328.828 319.663a8.63 8.63 0 0 1-17.258 0 8.63 8.63 0 1 1 17.258 0Z"/>
    <path fill="url(#ap)" d="M380.603 319.663a8.63 8.63 0 0 1-17.258 0 8.63 8.63 0 1 1 17.258 0Z"/>
    <path fill="url(#aq)" d="M432.378 319.663a8.63 8.63 0 0 1-17.258 0 8.63 8.63 0 1 1 17.258 0Z"/>
    <path fill="url(#ar)" d="M484.153 319.663a8.63 8.63 0 0 1-17.258 0 8.63 8.63 0 1 1 17.258 0Z"/>
    <path fill="url(#as)" d="M69.953 371.438a8.63 8.63 0 1 1-17.259-.001 8.63 8.63 0 0 1 17.26.001Z"/>
    <path fill="url(#at)" d="M121.728 371.438a8.63 8.63 0 0 1-17.258 0 8.63 8.63 0 1 1 17.258 0Z"/>
    <path fill="url(#au)" d="M173.503 371.438a8.63 8.63 0 0 1-17.258 0 8.63 8.63 0 1 1 17.258 0Z"/>
    <path fill="url(#av)" d="M225.278 371.438a8.63 8.63 0 0 1-17.258 0 8.63 8.63 0 1 1 17.258 0Z"/>
    <path fill="url(#aw)" d="M277.053 371.438a8.63 8.63 0 0 1-17.258 0 8.63 8.63 0 1 1 17.258 0Z"/>
    <path fill="url(#ax)" d="M328.828 371.438a8.63 8.63 0 0 1-17.258 0 8.63 8.63 0 1 1 17.258 0Z"/>
    <path fill="url(#ay)" d="M380.603 371.438a8.63 8.63 0 0 1-17.258 0 8.63 8.63 0 1 1 17.258 0Z"/>
    <path fill="url(#az)" d="M432.378 371.438a8.63 8.63 0 0 1-17.258 0 8.63 8.63 0 1 1 17.258 0Z"/>
    <path fill="url(#aA)" d="M121.728 423.213a8.63 8.63 0 0 1-17.258 0 8.63 8.63 0 1 1 17.258 0Z"/>
    <path fill="url(#aB)" d="M173.503 423.213a8.63 8.63 0 0 1-17.258 0 8.63 8.63 0 1 1 17.258 0Z"/>
    <path fill="url(#aC)" d="M225.278 423.213a8.63 8.63 0 0 1-17.258 0 8.63 8.63 0 1 1 17.258 0Z"/>
    <path fill="url(#aD)" d="M277.053 423.213a8.63 8.63 0 0 1-17.258 0 8.63 8.63 0 1 1 17.258 0Z"/>
    <path fill="url(#aE)" d="M328.828 423.213a8.63 8.63 0 0 1-17.258 0 8.63 8.63 0 1 1 17.258 0Z"/>
    <path fill="url(#aF)" d="M380.603 423.213a8.63 8.63 0 0 1-17.258 0 8.63 8.63 0 1 1 17.258 0Z"/>
    <path fill="url(#aG)" d="M173.503 474.988a8.63 8.63 0 0 1-17.258 0 8.63 8.63 0 1 1 17.258 0Z"/>
    <path fill="url(#aH)" d="M225.278 474.988a8.63 8.63 0 0 1-17.258 0 8.63 8.63 0 1 1 17.258 0Z"/>
    <path fill="url(#aI)" d="M277.053 474.988a8.63 8.63 0 0 1-17.258 0 8.63 8.63 0 1 1 17.258 0Z"/>
    <path fill="url(#aJ)" d="M328.828 474.988a8.63 8.63 0 0 1-17.258 0 8.63 8.63 0 1 1 17.258 0Z"/>
  </g>
  <defs>
    <linearGradient id="a" x1="298.914" x2="106.426" y1="530.329" y2="39.847" gradientUnits="userSpaceOnUse">
      <stop stop-color="#fff"/>
      <stop offset="1" stop-color="#fff" stop-opacity="0"/>
    </linearGradient>
    <linearGradient id="b" x1="298.914" x2="106.426" y1="530.329" y2="39.847" gradientUnits="userSpaceOnUse">
      <stop stop-color="#fff"/>
      <stop offset="1" stop-color="#fff" stop-opacity="0"/>
    </linearGradient>
    <linearGradient id="c" x1="298.914" x2="106.426" y1="530.329" y2="39.847" gradientUnits="userSpaceOnUse">
      <stop stop-color="#fff"/>
      <stop offset="1" stop-color="#fff" stop-opacity="0"/>
    </linearGradient>
    <linearGradient id="d" x1="298.914" x2="106.426" y1="530.329" y2="39.847" gradientUnits="userSpaceOnUse">
      <stop stop-color="#fff"/>
      <stop offset="1" stop-color="#fff" stop-opacity="0"/>
    </linearGradient>
    <linearGradient id="e" x1="298.914" x2="106.426" y1="530.329" y2="39.847" gradientUnits="userSpaceOnUse">
      <stop stop-color="#fff"/>
      <stop offset="1" stop-color="#fff" stop-opacity="0"/>
    </linearGradient>
    <linearGradient id="f" x1="298.914" x2="106.426" y1="530.329" y2="39.847" gradientUnits="userSpaceOnUse">
      <stop stop-color="#fff"/>
      <stop offset="1" stop-color="#fff" stop-opacity="0"/>
    </linearGradient>
    <linearGradient id="g" x1="298.914" x2="106.426" y1="530.329" y2="39.847" gradientUnits="userSpaceOnUse">
      <stop stop-color="#fff"/>
      <stop offset="1" stop-color="#fff" stop-opacity="0"/>
    </linearGradient>
    <linearGradient id="h" x1="298.914" x2="106.426" y1="530.329" y2="39.847" gradientUnits="userSpaceOnUse">
      <stop stop-color="#fff"/>
      <stop offset="1" stop-color="#fff" stop-opacity="0"/>
    </linearGradient>
    <linearGradient id="i" x1="298.914" x2="106.426" y1="530.329" y2="39.847" gradientUnits="userSpaceOnUse">
      <stop stop-color="#fff"/>
      <stop offset="1" stop-color="#fff" stop-opacity="0"/>
    </linearGradient>
    <linearGradient id="j" x1="298.914" x2="106.426" y1="530.329" y2="39.847" gradientUnits="userSpaceOnUse">
      <stop stop-color="#fff"/>
      <stop offset="1" stop-color="#fff" stop-opacity="0"/>
    </linearGradient>
    <linearGradient id="k" x1="298.914" x2="106.426" y1="530.329" y2="39.847" gradientUnits="userSpaceOnUse">
      <stop stop-color="#fff"/>
      <stop offset="1" stop-color="#fff" stop-opacity="0"/>
    </linearGradient>
    <linearGradient id="l" x1="298.914" x2="106.426" y1="530.329" y2="39.847" gradientUnits="userSpaceOnUse">
      <stop stop-color="#fff"/>
      <stop offset="1" stop-color="#fff" stop-opacity="0"/>
    </linearGradient>
    <linearGradient id="m" x1="298.914" x2="106.426" y1="530.329" y2="39.847" gradientUnits="userSpaceOnUse">
      <stop stop-color="#fff"/>
      <stop offset="1" stop-color="#fff" stop-opacity="0"/>
    </linearGradient>
    <linearGradient id="n" x1="298.914" x2="106.426" y1="530.329" y2="39.847" gradientUnits="userSpaceOnUse">
      <stop stop-color="#fff"/>
      <stop offset="1" stop-color="#fff" stop-opacity="0"/>
    </linearGradient>
    <linearGradient id="o" x1="298.914" x2="106.426" y1="530.329" y2="39.847" gradientUnits="userSpaceOnUse">
      <stop stop-color="#fff"/>
      <stop offset="1" stop-color="#fff" stop-opacity="0"/>
    </linearGradient>
    <linearGradient id="p" x1="298.914" x2="106.426" y1="530.329" y2="39.847" gradientUnits="userSpaceOnUse">
      <stop stop-color="#fff"/>
      <stop offset="1" stop-color="#fff" stop-opacity="0"/>
    </linearGradient>
    <linearGradient id="q" x1="298.914" x2="106.426" y1="530.329" y2="39.847" gradientUnits="userSpaceOnUse">
      <stop stop-color="#fff"/>
      <stop offset="1" stop-color="#fff" stop-opacity="0"/>
    </linearGradient>
    <linearGradient id="r" x1="298.914" x2="106.426" y1="530.329" y2="39.847" gradientUnits="userSpaceOnUse">
      <stop stop-color="#fff"/>
      <stop offset="1" stop-color="#fff" stop-opacity="0"/>
    </linearGradient>
    <linearGradient id="s" x1="298.914" x2="106.426" y1="530.329" y2="39.847" gradientUnits="userSpaceOnUse">
      <stop stop-color="#fff"/>
      <stop offset="1" stop-color="#fff" stop-opacity="0"/>
    </linearGradient>
    <linearGradient id="t" x1="298.914" x2="106.426" y1="530.329" y2="39.847" gradientUnits="userSpaceOnUse">
      <stop stop-color="#fff"/>
      <stop offset="1" stop-color="#fff" stop-opacity="0"/>
    </linearGradient>
    <linearGradient id="u" x1="298.914" x2="106.426" y1="530.329" y2="39.847" gradientUnits="userSpaceOnUse">
      <stop stop-color="#fff"/>
      <stop offset="1" stop-color="#fff" stop-opacity="0"/>
    </linearGradient>
    <linearGradient id="v" x1="298.914" x2="106.426" y1="530.329" y2="39.847" gradientUnits="userSpaceOnUse">
      <stop stop-color="#fff"/>
      <stop offset="1" stop-color="#fff" stop-opacity="0"/>
    </linearGradient>
    <linearGradient id="w" x1="298.914" x2="106.426" y1="530.329" y2="39.847" gradientUnits="userSpaceOnUse">
      <stop stop-color="#fff"/>
      <stop offset="1" stop-color="#fff" stop-opacity="0"/>
    </linearGradient>
    <linearGradient id="x" x1="298.914" x2="106.426" y1="530.329" y2="39.847" gradientUnits="userSpaceOnUse">
      <stop stop-color="#fff"/>
      <stop offset="1" stop-color="#fff" stop-opacity="0"/>
    </linearGradient>
    <linearGradient id="y" x1="298.914" x2="106.426" y1="530.329" y2="39.847" gradientUnits="userSpaceOnUse">
      <stop stop-color="#fff"/>
      <stop offset="1" stop-color="#fff" stop-opacity="0"/>
    </linearGradient>
    <linearGradient id="z" x1="298.914" x2="106.426" y1="530.329" y2="39.847" gradientUnits="userSpaceOnUse">
      <stop stop-color="#fff"/>
      <stop offset="1" stop-color="#fff" stop-opacity="0"/>
    </linearGradient>
    <linearGradient id="A" x1="298.914" x2="106.426" y1="530.329" y2="39.847" gradientUnits="userSpaceOnUse">
      <stop stop-color="#fff"/>
      <stop offset="1" stop-color="#fff" stop-opacity="0"/>
    </linearGradient>
    <linearGradient id="B" x1="298.914" x2="106.426" y1="530.329" y2="39.847" gradientUnits="userSpaceOnUse">
      <stop stop-color="#fff"/>
      <stop offset="1" stop-color="#fff" stop-opacity="0"/>
    </linearGradient>
    <linearGradient id="C" x1="298.914" x2="106.426" y1="530.329" y2="39.847" gradientUnits="userSpaceOnUse">
      <stop stop-color="#fff"/>
      <stop offset="1" stop-color="#fff" stop-opacity="0"/>
    </linearGradient>
    <linearGradient id="D" x1="298.914" x2="106.426" y1="530.329" y2="39.847" gradientUnits="userSpaceOnUse">
      <stop stop-color="#fff"/>
      <stop offset="1" stop-color="#fff" stop-opacity="0"/>
    </linearGradient>
    <linearGradient id="E" x1="298.914" x2="106.426" y1="530.329" y2="39.847" gradientUnits="userSpaceOnUse">
      <stop stop-color="#fff"/>
      <stop offset="1" stop-color="#fff" stop-opacity="0"/>
    </linearGradient>
    <linearGradient id="F" x1="298.914" x2="106.426" y1="530.329" y2="39.847" gradientUnits="userSpaceOnUse">
      <stop stop-color="#fff"/>
      <stop offset="1" stop-color="#fff" stop-opacity="0"/>
    </linearGradient>
    <linearGradient id="G" x1="298.914" x2="106.426" y1="530.329" y2="39.847" gradientUnits="userSpaceOnUse">
      <stop stop-color="#fff"/>
      <stop offset="1" stop-color="#fff" stop-opacity="0"/>
    </linearGradient>
    <linearGradient id="H" x1="298.914" x2="106.426" y1="530.329" y2="39.847" gradientUnits="userSpaceOnUse">
      <stop stop-color="#fff"/>
      <stop offset="1" stop-color="#fff" stop-opacity="0"/>
    </linearGradient>
    <linearGradient id="I" x1="298.914" x2="106.426" y1="530.329" y2="39.847" gradientUnits="userSpaceOnUse">
      <stop stop-color="#fff"/>
      <stop offset="1" stop-color="#fff" stop-opacity="0"/>
    </linearGradient>
    <linearGradient id="J" x1="298.914" x2="106.426" y1="530.329" y2="39.847" gradientUnits="userSpaceOnUse">
      <stop stop-color="#fff"/>
      <stop offset="1" stop-color="#fff" stop-opacity="0"/>
    </linearGradient>
    <linearGradient id="K" x1="298.914" x2="106.426" y1="530.329" y2="39.847" gradientUnits="userSpaceOnUse">
      <stop stop-color="#fff"/>
      <stop offset="1" stop-color="#fff" stop-opacity="0"/>
    </linearGradient>
    <linearGradient id="L" x1="298.914" x2="106.426" y1="530.329" y2="39.847" gradientUnits="userSpaceOnUse">
      <stop stop-color="#fff"/>
      <stop offset="1" stop-color="#fff" stop-opacity="0"/>
    </linearGradient>
    <linearGradient id="M" x1="298.914" x2="106.426" y1="530.329" y2="39.847" gradientUnits="userSpaceOnUse">
      <stop stop-color="#fff"/>
      <stop offset="1" stop-color="#fff" stop-opacity="0"/>
    </linearGradient>
    <linearGradient id="N" x1="298.914" x2="106.426" y1="530.329" y2="39.847" gradientUnits="userSpaceOnUse">
      <stop stop-color="#fff"/>
      <stop offset="1" stop-color="#fff" stop-opacity="0"/>
    </linearGradient>
    <linearGradient id="O" x1="298.914" x2="106.426" y1="530.329" y2="39.847" gradientUnits="userSpaceOnUse">
      <stop stop-color="#fff"/>
      <stop offset="1" stop-color="#fff" stop-opacity="0"/>
    </linearGradient>
    <linearGradient id="P" x1="298.914" x2="106.426" y1="530.329" y2="39.847" gradientUnits="userSpaceOnUse">
      <stop stop-color="#fff"/>
      <stop offset="1" stop-color="#fff" stop-opacity="0"/>
    </linearGradient>
    <linearGradient id="Q" x1="298.914" x2="106.426" y1="530.329" y2="39.847" gradientUnits="userSpaceOnUse">
      <stop stop-color="#fff"/>
      <stop offset="1" stop-color="#fff" stop-opacity="0"/>
    </linearGradient>
    <linearGradient id="R" x1="298.914" x2="106.426" y1="530.329" y2="39.847" gradientUnits="userSpaceOnUse">
      <stop stop-color="#fff"/>
      <stop offset="1" stop-color="#fff" stop-opacity="0"/>
    </linearGradient>
    <linearGradient id="S" x1="298.914" x2="106.426" y1="530.329" y2="39.847" gradientUnits="userSpaceOnUse">
      <stop stop-color="#fff"/>
      <stop offset="1" stop-color="#fff" stop-opacity="0"/>
    </linearGradient>
    <linearGradient id="T" x1="298.914" x2="106.426" y1="530.329" y2="39.847" gradientUnits="userSpaceOnUse">
      <stop stop-color="#fff"/>
      <stop offset="1" stop-color="#fff" stop-opacity="0"/>
    </linearGradient>
    <linearGradient id="U" x1="298.914" x2="106.426" y1="530.329" y2="39.847" gradientUnits="userSpaceOnUse">
      <stop stop-color="#fff"/>
      <stop offset="1" stop-color="#fff" stop-opacity="0"/>
    </linearGradient>
    <linearGradient id="V" x1="298.914" x2="106.426" y1="530.329" y2="39.847" gradientUnits="userSpaceOnUse">
      <stop stop-color="#fff"/>
      <stop offset="1" stop-color="#fff" stop-opacity="0"/>
    </linearGradient>
    <linearGradient id="W" x1="298.914" x2="106.426" y1="530.329" y2="39.847" gradientUnits="userSpaceOnUse">
      <stop stop-color="#fff"/>
      <stop offset="1" stop-color="#fff" stop-opacity="0"/>
    </linearGradient>
    <linearGradient id="X" x1="298.914" x2="106.426" y1="530.329" y2="39.847" gradientUnits="userSpaceOnUse">
      <stop stop-color="#fff"/>
      <stop offset="1" stop-color="#fff" stop-opacity="0"/>
    </linearGradient>
    <linearGradient id="Y" x1="298.914" x2="106.426" y1="530.329" y2="39.847" gradientUnits="userSpaceOnUse">
      <stop stop-color="#fff"/>
      <stop offset="1" stop-color="#fff" stop-opacity="0"/>
    </linearGradient>
    <linearGradient id="Z" x1="298.914" x2="106.426" y1="530.329" y2="39.847" gradientUnits="userSpaceOnUse">
      <stop stop-color="#fff"/>
      <stop offset="1" stop-color="#fff" stop-opacity="0"/>
    </linearGradient>
    <linearGradient id="aa" x1="298.914" x2="106.426" y1="530.329" y2="39.847" gradientUnits="userSpaceOnUse">
      <stop stop-color="#fff"/>
      <stop offset="1" stop-color="#fff" stop-opacity="0"/>
    </linearGradient>
    <linearGradient id="ab" x1="298.914" x2="106.426" y1="530.329" y2="39.847" gradientUnits="userSpaceOnUse">
      <stop stop-color="#fff"/>
      <stop offset="1" stop-color="#fff" stop-opacity="0"/>
    </linearGradient>
    <linearGradient id="ac" x1="298.914" x2="106.426" y1="530.329" y2="39.847" gradientUnits="userSpaceOnUse">
      <stop stop-color="#fff"/>
      <stop offset="1" stop-color="#fff" stop-opacity="0"/>
    </linearGradient>
    <linearGradient id="ad" x1="298.914" x2="106.426" y1="530.329" y2="39.847" gradientUnits="userSpaceOnUse">
      <stop stop-color="#fff"/>
      <stop offset="1" stop-color="#fff" stop-opacity="0"/>
    </linearGradient>
    <linearGradient id="ae" x1="298.914" x2="106.426" y1="530.329" y2="39.847" gradientUnits="userSpaceOnUse">
      <stop stop-color="#fff"/>
      <stop offset="1" stop-color="#fff" stop-opacity="0"/>
    </linearGradient>
    <linearGradient id="af" x1="298.914" x2="106.426" y1="530.329" y2="39.847" gradientUnits="userSpaceOnUse">
      <stop stop-color="#fff"/>
      <stop offset="1" stop-color="#fff" stop-opacity="0"/>
    </linearGradient>
    <linearGradient id="ag" x1="298.914" x2="106.426" y1="530.329" y2="39.847" gradientUnits="userSpaceOnUse">
      <stop stop-color="#fff"/>
      <stop offset="1" stop-color="#fff" stop-opacity="0"/>
    </linearGradient>
    <linearGradient id="ah" x1="298.914" x2="106.426" y1="530.329" y2="39.847" gradientUnits="userSpaceOnUse">
      <stop stop-color="#fff"/>
      <stop offset="1" stop-color="#fff" stop-opacity="0"/>
    </linearGradient>
    <linearGradient id="ai" x1="298.914" x2="106.426" y1="530.329" y2="39.847" gradientUnits="userSpaceOnUse">
      <stop stop-color="#fff"/>
      <stop offset="1" stop-color="#fff" stop-opacity="0"/>
    </linearGradient>
    <linearGradient id="aj" x1="298.914" x2="106.426" y1="530.329" y2="39.847" gradientUnits="userSpaceOnUse">
      <stop stop-color="#fff"/>
      <stop offset="1" stop-color="#fff" stop-opacity="0"/>
    </linearGradient>
    <linearGradient id="ak" x1="298.914" x2="106.426" y1="530.329" y2="39.847" gradientUnits="userSpaceOnUse">
      <stop stop-color="#fff"/>
      <stop offset="1" stop-color="#fff" stop-opacity="0"/>
    </linearGradient>
    <linearGradient id="al" x1="298.914" x2="106.426" y1="530.329" y2="39.847" gradientUnits="userSpaceOnUse">
      <stop stop-color="#fff"/>
      <stop offset="1" stop-color="#fff" stop-opacity="0"/>
    </linearGradient>
    <linearGradient id="am" x1="298.914" x2="106.426" y1="530.329" y2="39.847" gradientUnits="userSpaceOnUse">
      <stop stop-color="#fff"/>
      <stop offset="1" stop-color="#fff" stop-opacity="0"/>
    </linearGradient>
    <linearGradient id="an" x1="298.914" x2="106.426" y1="530.329" y2="39.847" gradientUnits="userSpaceOnUse">
      <stop stop-color="#fff"/>
      <stop offset="1" stop-color="#fff" stop-opacity="0"/>
    </linearGradient>
    <linearGradient id="ao" x1="298.914" x2="106.426" y1="530.329" y2="39.847" gradientUnits="userSpaceOnUse">
      <stop stop-color="#fff"/>
      <stop offset="1" stop-color="#fff" stop-opacity="0"/>
    </linearGradient>
    <linearGradient id="ap" x1="298.914" x2="106.426" y1="530.329" y2="39.847" gradientUnits="userSpaceOnUse">
      <stop stop-color="#fff"/>
      <stop offset="1" stop-color="#fff" stop-opacity="0"/>
    </linearGradient>
    <linearGradient id="aq" x1="298.914" x2="106.426" y1="530.329" y2="39.847" gradientUnits="userSpaceOnUse">
      <stop stop-color="#fff"/>
      <stop offset="1" stop-color="#fff" stop-opacity="0"/>
    </linearGradient>
    <linearGradient id="ar" x1="298.914" x2="106.426" y1="530.329" y2="39.847" gradientUnits="userSpaceOnUse">
      <stop stop-color="#fff"/>
      <stop offset="1" stop-color="#fff" stop-opacity="0"/>
    </linearGradient>
    <linearGradient id="as" x1="298.914" x2="106.426" y1="530.329" y2="39.847" gradientUnits="userSpaceOnUse">
      <stop stop-color="#fff"/>
      <stop offset="1" stop-color="#fff" stop-opacity="0"/>
    </linearGradient>
    <linearGradient id="at" x1="298.914" x2="106.426" y1="530.329" y2="39.847" gradientUnits="userSpaceOnUse">
      <stop stop-color="#fff"/>
      <stop offset="1" stop-color="#fff" stop-opacity="0"/>
    </linearGradient>
    <linearGradient id="au" x1="298.914" x2="106.426" y1="530.329" y2="39.847" gradientUnits="userSpaceOnUse">
      <stop stop-color="#fff"/>
      <stop offset="1" stop-color="#fff" stop-opacity="0"/>
    </linearGradient>
    <linearGradient id="av" x1="298.914" x2="106.426" y1="530.329" y2="39.847" gradientUnits="userSpaceOnUse">
      <stop stop-color="#fff"/>
      <stop offset="1" stop-color="#fff" stop-opacity="0"/>
    </linearGradient>
    <linearGradient id="aw" x1="298.914" x2="106.426" y1="530.329" y2="39.847" gradientUnits="userSpaceOnUse">
      <stop stop-color="#fff"/>
      <stop offset="1" stop-color="#fff" stop-opacity="0"/>
    </linearGradient>
    <linearGradient id="ax" x1="298.914" x2="106.426" y1="530.329" y2="39.847" gradientUnits="userSpaceOnUse">
      <stop stop-color="#fff"/>
      <stop offset="1" stop-color="#fff" stop-opacity="0"/>
    </linearGradient>
    <linearGradient id="ay" x1="298.914" x2="106.426" y1="530.329" y2="39.847" gradientUnits="userSpaceOnUse">
      <stop stop-color="#fff"/>
      <stop offset="1" stop-color="#fff" stop-opacity="0"/>
    </linearGradient>
    <linearGradient id="az" x1="298.914" x2="106.426" y1="530.329" y2="39.847" gradientUnits="userSpaceOnUse">
      <stop stop-color="#fff"/>
      <stop offset="1" stop-color="#fff" stop-opacity="0"/>
    </linearGradient>
    <linearGradient id="aA" x1="298.914" x2="106.426" y1="530.329" y2="39.847" gradientUnits="userSpaceOnUse">
      <stop stop-color="#fff"/>
      <stop offset="1" stop-color="#fff" stop-opacity="0"/>
    </linearGradient>
    <linearGradient id="aB" x1="298.914" x2="106.426" y1="530.329" y2="39.847" gradientUnits="userSpaceOnUse">
      <stop stop-color="#fff"/>
      <stop offset="1" stop-color="#fff" stop-opacity="0"/>
    </linearGradient>
    <linearGradient id="aC" x1="298.914" x2="106.426" y1="530.329" y2="39.847" gradientUnits="userSpaceOnUse">
      <stop stop-color="#fff"/>
      <stop offset="1" stop-color="#fff" stop-opacity="0"/>
    </linearGradient>
    <linearGradient id="aD" x1="298.914" x2="106.426" y1="530.329" y2="39.847" gradientUnits="userSpaceOnUse">
      <stop stop-color="#fff"/>
      <stop offset="1" stop-color="#fff" stop-opacity="0"/>
    </linearGradient>
    <linearGradient id="aE" x1="298.914" x2="106.426" y1="530.329" y2="39.847" gradientUnits="userSpaceOnUse">
      <stop stop-color="#fff"/>
      <stop offset="1" stop-color="#fff" stop-opacity="0"/>
    </linearGradient>
    <linearGradient id="aF" x1="298.914" x2="106.426" y1="530.329" y2="39.847" gradientUnits="userSpaceOnUse">
      <stop stop-color="#fff"/>
      <stop offset="1" stop-color="#fff" stop-opacity="0"/>
    </linearGradient>
    <linearGradient id="aG" x1="298.914" x2="106.426" y1="530.329" y2="39.847" gradientUnits="userSpaceOnUse">
      <stop stop-color="#fff"/>
      <stop offset="1" stop-color="#fff" stop-opacity="0"/>
    </linearGradient>
    <linearGradient id="aH" x1="298.914" x2="106.426" y1="530.329" y2="39.847" gradientUnits="userSpaceOnUse">
      <stop stop-color="#fff"/>
      <stop offset="1" stop-color="#fff" stop-opacity="0"/>
    </linearGradient>
    <linearGradient id="aI" x1="298.914" x2="106.426" y1="530.329" y2="39.847" gradientUnits="userSpaceOnUse">
      <stop stop-color="#fff"/>
      <stop offset="1" stop-color="#fff" stop-opacity="0"/>
    </linearGradient>
    <linearGradient id="aJ" x1="298.914" x2="106.426" y1="530.329" y2="39.847" gradientUnits="userSpaceOnUse">
      <stop stop-color="#fff"/>
      <stop offset="1" stop-color="#fff" stop-opacity="0"/>
    </linearGradient>
  </defs>
</svg>
