<svg xmlns="http://www.w3.org/2000/svg" width="484" height="484" fill="none" viewBox="0 0 484 484">
  <g opacity=".5">
    <path fill="url(#a)" d="M466.111 112.768a259.196 259.196 0 0 1 3.909 7.021 8.623 8.623 0 0 1-3.909-7.021Z"/>
    <path fill="url(#b)" d="M418.862 53.193a260.808 260.808 0 0 1 11.696 11.695 8.629 8.629 0 1 1-11.696-11.695Z"/>
    <path fill="url(#c)" d="M363.962 13.73a259.34 259.34 0 0 1 7.021 3.91 8.621 8.621 0 0 1-7.021-3.91Z"/>
    <path fill="url(#d)" d="M112.518 17.64a259.34 259.34 0 0 1 7.021-3.91 8.621 8.621 0 0 1-7.021 3.91Z"/>
    <path fill="url(#e)" d="M52.944 64.888a260.472 260.472 0 0 1 11.695-11.695 8.63 8.63 0 1 1-11.695 11.695Z"/>
    <path fill="url(#f)" d="M13.481 119.789a257.828 257.828 0 0 1 3.909-7.021 8.623 8.623 0 0 1-3.909 7.021Z"/>
    <path fill="url(#g)" d="M470.02 364.211a259.196 259.196 0 0 1-3.909 7.021 8.623 8.623 0 0 1 3.909-7.021Z"/>
    <path fill="url(#h)" d="M430.558 419.112a8.63 8.63 0 1 0-11.696 11.695 261.122 261.122 0 0 0 11.696-11.695Z"/>
    <path fill="url(#i)" d="M370.983 466.361a8.621 8.621 0 0 0-7.021 3.908 257.963 257.963 0 0 0 7.021-3.908Z"/>
    <path fill="url(#j)" d="M119.539 470.269a8.621 8.621 0 0 0-7.021-3.908 257.963 257.963 0 0 0 7.021 3.908Z"/>
    <path fill="url(#k)" d="M64.639 430.807a8.63 8.63 0 1 0-11.695-11.695 260.785 260.785 0 0 0 11.695 11.695Z"/>
    <path fill="url(#l)" d="M17.39 371.232a8.623 8.623 0 0 0-3.909-7.021 257.828 257.828 0 0 0 3.909 7.021Z"/>
    <path fill="url(#m)" d="M172.717 9.012a8.629 8.629 0 1 1-17.258 0 8.629 8.629 0 1 1 17.258 0Z"/>
    <path fill="url(#n)" d="M224.492 9.012a8.629 8.629 0 1 1-17.258 0 8.629 8.629 0 1 1 17.258 0Z"/>
    <path fill="url(#o)" d="M276.267 9.012a8.629 8.629 0 1 1-17.258 0 8.629 8.629 0 1 1 17.258 0Z"/>
    <path fill="url(#p)" d="M328.042 9.012a8.629 8.629 0 1 1-17.258 0 8.629 8.629 0 1 1 17.258 0Z"/>
    <path fill="url(#q)" d="M120.942 60.788a8.629 8.629 0 1 1-17.258 0 8.629 8.629 0 1 1 17.258 0Z"/>
    <path fill="url(#r)" d="M172.717 60.788a8.629 8.629 0 1 1-17.258 0 8.629 8.629 0 1 1 17.258 0Z"/>
    <path fill="url(#s)" d="M224.492 60.788a8.629 8.629 0 1 1-17.258 0 8.629 8.629 0 1 1 17.258 0Z"/>
    <path fill="url(#t)" d="M276.267 60.788a8.629 8.629 0 1 1-17.258 0 8.629 8.629 0 1 1 17.258 0Z"/>
    <path fill="url(#u)" d="M328.042 60.788a8.629 8.629 0 1 1-17.258 0 8.629 8.629 0 1 1 17.258 0Z"/>
    <path fill="url(#v)" d="M379.817 60.788a8.629 8.629 0 1 1-17.258 0 8.629 8.629 0 1 1 17.258 0Z"/>
    <path fill="url(#w)" d="M69.167 112.562a8.63 8.63 0 1 1-17.26 0 8.63 8.63 0 0 1 17.26 0Z"/>
    <path fill="url(#x)" d="M120.942 112.562a8.63 8.63 0 1 1-17.259.001 8.63 8.63 0 0 1 17.259-.001Z"/>
    <path fill="url(#y)" d="M172.717 112.562a8.63 8.63 0 1 1-17.259.001 8.63 8.63 0 0 1 17.259-.001Z"/>
    <path fill="url(#z)" d="M224.492 112.562a8.63 8.63 0 1 1-17.259.001 8.63 8.63 0 0 1 17.259-.001Z"/>
    <path fill="url(#A)" d="M276.267 112.562a8.63 8.63 0 1 1-17.259.001 8.63 8.63 0 0 1 17.259-.001Z"/>
    <path fill="url(#B)" d="M328.042 112.562a8.63 8.63 0 1 1-17.259.001 8.63 8.63 0 0 1 17.259-.001Z"/>
    <path fill="url(#C)" d="M379.817 112.562a8.63 8.63 0 1 1-17.259.001 8.63 8.63 0 0 1 17.259-.001Z"/>
    <path fill="url(#D)" d="M431.592 112.562a8.63 8.63 0 1 1-17.259.001 8.63 8.63 0 0 1 17.259-.001Z"/>
    <path fill="url(#E)" d="M17.392 164.337a8.63 8.63 0 1 1-17.26 0 8.63 8.63 0 0 1 17.26 0Z"/>
    <path fill="url(#F)" d="M69.167 164.337a8.63 8.63 0 1 1-17.26 0 8.63 8.63 0 0 1 17.26 0Z"/>
    <path fill="url(#G)" d="M120.942 164.337a8.63 8.63 0 1 1-17.259.001 8.63 8.63 0 0 1 17.259-.001Z"/>
    <path fill="url(#H)" d="M172.717 164.337a8.63 8.63 0 1 1-17.259.001 8.63 8.63 0 0 1 17.259-.001Z"/>
    <path fill="url(#I)" d="M224.492 164.337a8.63 8.63 0 1 1-17.259.001 8.63 8.63 0 0 1 17.259-.001Z"/>
    <path fill="url(#J)" d="M276.267 164.337a8.63 8.63 0 1 1-17.259.001 8.63 8.63 0 0 1 17.259-.001Z"/>
    <path fill="url(#K)" d="M328.042 164.337a8.63 8.63 0 1 1-17.259.001 8.63 8.63 0 0 1 17.259-.001Z"/>
    <path fill="url(#L)" d="M379.817 164.337a8.63 8.63 0 1 1-17.259.001 8.63 8.63 0 0 1 17.259-.001Z"/>
    <path fill="url(#M)" d="M431.592 164.337a8.63 8.63 0 1 1-17.259.001 8.63 8.63 0 0 1 17.259-.001Z"/>
    <path fill="url(#N)" d="M483.367 164.337a8.63 8.63 0 1 1-17.259.001 8.63 8.63 0 0 1 17.259-.001Z"/>
    <path fill="url(#O)" d="M17.392 216.112a8.63 8.63 0 1 1-17.26 0 8.63 8.63 0 0 1 17.26 0Z"/>
    <path fill="url(#P)" d="M69.167 216.112a8.63 8.63 0 1 1-17.26 0 8.63 8.63 0 0 1 17.26 0Z"/>
    <path fill="url(#Q)" d="M120.942 216.112a8.63 8.63 0 1 1-17.259.001 8.63 8.63 0 0 1 17.259-.001Z"/>
    <path fill="url(#R)" d="M172.717 216.112a8.63 8.63 0 1 1-17.259.001 8.63 8.63 0 0 1 17.259-.001Z"/>
    <path fill="url(#S)" d="M224.492 216.112a8.63 8.63 0 1 1-17.259.001 8.63 8.63 0 0 1 17.259-.001Z"/>
    <path fill="url(#T)" d="M276.267 216.112a8.63 8.63 0 1 1-17.259.001 8.63 8.63 0 0 1 17.259-.001Z"/>
    <path fill="url(#U)" d="M328.042 216.112a8.63 8.63 0 1 1-17.259.001 8.63 8.63 0 0 1 17.259-.001Z"/>
    <path fill="url(#V)" d="M379.817 216.112a8.63 8.63 0 1 1-17.259.001 8.63 8.63 0 0 1 17.259-.001Z"/>
    <path fill="url(#W)" d="M431.592 216.112a8.63 8.63 0 1 1-17.259.001 8.63 8.63 0 0 1 17.259-.001Z"/>
    <path fill="url(#X)" d="M483.367 216.112a8.63 8.63 0 1 1-17.259.001 8.63 8.63 0 0 1 17.259-.001Z"/>
    <path fill="url(#Y)" d="M17.392 267.888a8.63 8.63 0 1 1-17.259-.001 8.63 8.63 0 0 1 17.26.001Z"/>
    <path fill="url(#Z)" d="M69.167 267.888a8.63 8.63 0 1 1-17.259-.001 8.63 8.63 0 0 1 17.26.001Z"/>
    <path fill="url(#aa)" d="M120.942 267.888a8.63 8.63 0 0 1-17.258 0 8.63 8.63 0 1 1 17.258 0Z"/>
    <path fill="url(#ab)" d="M172.717 267.888a8.63 8.63 0 0 1-17.258 0 8.63 8.63 0 1 1 17.258 0Z"/>
    <path fill="url(#ac)" d="M224.492 267.888a8.63 8.63 0 0 1-17.258 0 8.63 8.63 0 1 1 17.258 0Z"/>
    <path fill="url(#ad)" d="M276.267 267.888a8.63 8.63 0 0 1-17.258 0 8.63 8.63 0 1 1 17.258 0Z"/>
    <path fill="url(#ae)" d="M328.042 267.888a8.63 8.63 0 0 1-17.258 0 8.63 8.63 0 1 1 17.258 0Z"/>
    <path fill="url(#af)" d="M379.817 267.888a8.63 8.63 0 0 1-17.258 0 8.63 8.63 0 1 1 17.258 0Z"/>
    <path fill="url(#ag)" d="M431.592 267.888a8.63 8.63 0 0 1-17.258 0 8.63 8.63 0 1 1 17.258 0Z"/>
    <path fill="url(#ah)" d="M483.367 267.888a8.63 8.63 0 0 1-17.258 0 8.63 8.63 0 1 1 17.258 0Z"/>
    <path fill="url(#ai)" d="M17.392 319.663a8.63 8.63 0 1 1-17.259-.001 8.63 8.63 0 0 1 17.26.001Z"/>
    <path fill="url(#aj)" d="M69.167 319.663a8.63 8.63 0 1 1-17.259-.001 8.63 8.63 0 0 1 17.26.001Z"/>
    <path fill="url(#ak)" d="M120.942 319.663a8.63 8.63 0 0 1-17.258 0 8.63 8.63 0 1 1 17.258 0Z"/>
    <path fill="url(#al)" d="M172.717 319.663a8.63 8.63 0 0 1-17.258 0 8.63 8.63 0 1 1 17.258 0Z"/>
    <path fill="url(#am)" d="M224.492 319.663a8.63 8.63 0 0 1-17.258 0 8.63 8.63 0 1 1 17.258 0Z"/>
    <path fill="url(#an)" d="M276.267 319.663a8.63 8.63 0 0 1-17.258 0 8.63 8.63 0 1 1 17.258 0Z"/>
    <path fill="url(#ao)" d="M328.042 319.663a8.63 8.63 0 0 1-17.258 0 8.63 8.63 0 1 1 17.258 0Z"/>
    <path fill="url(#ap)" d="M379.817 319.663a8.63 8.63 0 0 1-17.258 0 8.63 8.63 0 1 1 17.258 0Z"/>
    <path fill="url(#aq)" d="M431.592 319.663a8.63 8.63 0 0 1-17.258 0 8.63 8.63 0 1 1 17.258 0Z"/>
    <path fill="url(#ar)" d="M483.367 319.663a8.63 8.63 0 0 1-17.258 0 8.63 8.63 0 1 1 17.258 0Z"/>
    <path fill="url(#as)" d="M69.167 371.438a8.63 8.63 0 1 1-17.259-.001 8.63 8.63 0 0 1 17.26.001Z"/>
    <path fill="url(#at)" d="M120.942 371.438a8.63 8.63 0 0 1-17.258 0 8.63 8.63 0 1 1 17.258 0Z"/>
    <path fill="url(#au)" d="M172.717 371.438a8.63 8.63 0 0 1-17.258 0 8.63 8.63 0 1 1 17.258 0Z"/>
    <path fill="url(#av)" d="M224.492 371.438a8.63 8.63 0 0 1-17.258 0 8.63 8.63 0 1 1 17.258 0Z"/>
    <path fill="url(#aw)" d="M276.267 371.438a8.63 8.63 0 0 1-17.258 0 8.63 8.63 0 1 1 17.258 0Z"/>
    <path fill="url(#ax)" d="M328.042 371.438a8.63 8.63 0 0 1-17.258 0 8.63 8.63 0 1 1 17.258 0Z"/>
    <path fill="url(#ay)" d="M379.817 371.438a8.63 8.63 0 0 1-17.258 0 8.63 8.63 0 1 1 17.258 0Z"/>
    <path fill="url(#az)" d="M431.592 371.438a8.63 8.63 0 0 1-17.258 0 8.63 8.63 0 1 1 17.258 0Z"/>
    <path fill="url(#aA)" d="M120.942 423.213a8.63 8.63 0 0 1-17.258 0 8.63 8.63 0 1 1 17.258 0Z"/>
    <path fill="url(#aB)" d="M172.717 423.213a8.63 8.63 0 0 1-17.258 0 8.63 8.63 0 1 1 17.258 0Z"/>
    <path fill="url(#aC)" d="M224.492 423.213a8.63 8.63 0 0 1-17.258 0 8.63 8.63 0 1 1 17.258 0Z"/>
    <path fill="url(#aD)" d="M276.267 423.213a8.63 8.63 0 0 1-17.258 0 8.63 8.63 0 1 1 17.258 0Z"/>
    <path fill="url(#aE)" d="M328.042 423.213a8.63 8.63 0 0 1-17.258 0 8.63 8.63 0 1 1 17.258 0Z"/>
    <path fill="url(#aF)" d="M379.817 423.213a8.63 8.63 0 0 1-17.258 0 8.63 8.63 0 1 1 17.258 0Z"/>
    <path fill="url(#aG)" d="M172.717 474.988a8.63 8.63 0 0 1-17.258 0 8.63 8.63 0 1 1 17.258 0Z"/>
    <path fill="url(#aH)" d="M224.492 474.988a8.63 8.63 0 0 1-17.258 0 8.63 8.63 0 1 1 17.258 0Z"/>
    <path fill="url(#aI)" d="M276.267 474.988a8.63 8.63 0 0 1-17.258 0 8.63 8.63 0 1 1 17.258 0Z"/>
    <path fill="url(#aJ)" d="M328.042 474.988a8.63 8.63 0 0 1-17.258 0 8.63 8.63 0 1 1 17.258 0Z"/>
  </g>
  <defs>
    <linearGradient id="a" x1="298.128" x2="105.64" y1="530.329" y2="39.847" gradientUnits="userSpaceOnUse">
      <stop stop-color="#1F3B64"/>
      <stop offset="1" stop-color="#1F3B64" stop-opacity="0"/>
    </linearGradient>
    <linearGradient id="b" x1="298.128" x2="105.64" y1="530.329" y2="39.847" gradientUnits="userSpaceOnUse">
      <stop stop-color="#1F3B64"/>
      <stop offset="1" stop-color="#1F3B64" stop-opacity="0"/>
    </linearGradient>
    <linearGradient id="c" x1="298.128" x2="105.64" y1="530.329" y2="39.847" gradientUnits="userSpaceOnUse">
      <stop stop-color="#1F3B64"/>
      <stop offset="1" stop-color="#1F3B64" stop-opacity="0"/>
    </linearGradient>
    <linearGradient id="d" x1="298.128" x2="105.64" y1="530.329" y2="39.847" gradientUnits="userSpaceOnUse">
      <stop stop-color="#1F3B64"/>
      <stop offset="1" stop-color="#1F3B64" stop-opacity="0"/>
    </linearGradient>
    <linearGradient id="e" x1="298.128" x2="105.64" y1="530.329" y2="39.847" gradientUnits="userSpaceOnUse">
      <stop stop-color="#1F3B64"/>
      <stop offset="1" stop-color="#1F3B64" stop-opacity="0"/>
    </linearGradient>
    <linearGradient id="f" x1="298.128" x2="105.64" y1="530.329" y2="39.847" gradientUnits="userSpaceOnUse">
      <stop stop-color="#1F3B64"/>
      <stop offset="1" stop-color="#1F3B64" stop-opacity="0"/>
    </linearGradient>
    <linearGradient id="g" x1="298.128" x2="105.64" y1="530.329" y2="39.847" gradientUnits="userSpaceOnUse">
      <stop stop-color="#1F3B64"/>
      <stop offset="1" stop-color="#1F3B64" stop-opacity="0"/>
    </linearGradient>
    <linearGradient id="h" x1="298.128" x2="105.64" y1="530.329" y2="39.847" gradientUnits="userSpaceOnUse">
      <stop stop-color="#1F3B64"/>
      <stop offset="1" stop-color="#1F3B64" stop-opacity="0"/>
    </linearGradient>
    <linearGradient id="i" x1="298.128" x2="105.64" y1="530.329" y2="39.847" gradientUnits="userSpaceOnUse">
      <stop stop-color="#1F3B64"/>
      <stop offset="1" stop-color="#1F3B64" stop-opacity="0"/>
    </linearGradient>
    <linearGradient id="j" x1="298.128" x2="105.64" y1="530.329" y2="39.847" gradientUnits="userSpaceOnUse">
      <stop stop-color="#1F3B64"/>
      <stop offset="1" stop-color="#1F3B64" stop-opacity="0"/>
    </linearGradient>
    <linearGradient id="k" x1="298.128" x2="105.64" y1="530.329" y2="39.847" gradientUnits="userSpaceOnUse">
      <stop stop-color="#1F3B64"/>
      <stop offset="1" stop-color="#1F3B64" stop-opacity="0"/>
    </linearGradient>
    <linearGradient id="l" x1="298.128" x2="105.64" y1="530.329" y2="39.847" gradientUnits="userSpaceOnUse">
      <stop stop-color="#1F3B64"/>
      <stop offset="1" stop-color="#1F3B64" stop-opacity="0"/>
    </linearGradient>
    <linearGradient id="m" x1="298.128" x2="105.64" y1="530.329" y2="39.847" gradientUnits="userSpaceOnUse">
      <stop stop-color="#1F3B64"/>
      <stop offset="1" stop-color="#1F3B64" stop-opacity="0"/>
    </linearGradient>
    <linearGradient id="n" x1="298.128" x2="105.64" y1="530.329" y2="39.847" gradientUnits="userSpaceOnUse">
      <stop stop-color="#1F3B64"/>
      <stop offset="1" stop-color="#1F3B64" stop-opacity="0"/>
    </linearGradient>
    <linearGradient id="o" x1="298.128" x2="105.64" y1="530.329" y2="39.847" gradientUnits="userSpaceOnUse">
      <stop stop-color="#1F3B64"/>
      <stop offset="1" stop-color="#1F3B64" stop-opacity="0"/>
    </linearGradient>
    <linearGradient id="p" x1="298.128" x2="105.64" y1="530.329" y2="39.847" gradientUnits="userSpaceOnUse">
      <stop stop-color="#1F3B64"/>
      <stop offset="1" stop-color="#1F3B64" stop-opacity="0"/>
    </linearGradient>
    <linearGradient id="q" x1="298.128" x2="105.64" y1="530.329" y2="39.847" gradientUnits="userSpaceOnUse">
      <stop stop-color="#1F3B64"/>
      <stop offset="1" stop-color="#1F3B64" stop-opacity="0"/>
    </linearGradient>
    <linearGradient id="r" x1="298.128" x2="105.64" y1="530.329" y2="39.847" gradientUnits="userSpaceOnUse">
      <stop stop-color="#1F3B64"/>
      <stop offset="1" stop-color="#1F3B64" stop-opacity="0"/>
    </linearGradient>
    <linearGradient id="s" x1="298.128" x2="105.64" y1="530.329" y2="39.847" gradientUnits="userSpaceOnUse">
      <stop stop-color="#1F3B64"/>
      <stop offset="1" stop-color="#1F3B64" stop-opacity="0"/>
    </linearGradient>
    <linearGradient id="t" x1="298.128" x2="105.64" y1="530.329" y2="39.847" gradientUnits="userSpaceOnUse">
      <stop stop-color="#1F3B64"/>
      <stop offset="1" stop-color="#1F3B64" stop-opacity="0"/>
    </linearGradient>
    <linearGradient id="u" x1="298.128" x2="105.64" y1="530.329" y2="39.847" gradientUnits="userSpaceOnUse">
      <stop stop-color="#1F3B64"/>
      <stop offset="1" stop-color="#1F3B64" stop-opacity="0"/>
    </linearGradient>
    <linearGradient id="v" x1="298.128" x2="105.64" y1="530.329" y2="39.847" gradientUnits="userSpaceOnUse">
      <stop stop-color="#1F3B64"/>
      <stop offset="1" stop-color="#1F3B64" stop-opacity="0"/>
    </linearGradient>
    <linearGradient id="w" x1="298.128" x2="105.64" y1="530.329" y2="39.847" gradientUnits="userSpaceOnUse">
      <stop stop-color="#1F3B64"/>
      <stop offset="1" stop-color="#1F3B64" stop-opacity="0"/>
    </linearGradient>
    <linearGradient id="x" x1="298.128" x2="105.64" y1="530.329" y2="39.847" gradientUnits="userSpaceOnUse">
      <stop stop-color="#1F3B64"/>
      <stop offset="1" stop-color="#1F3B64" stop-opacity="0"/>
    </linearGradient>
    <linearGradient id="y" x1="298.128" x2="105.64" y1="530.329" y2="39.847" gradientUnits="userSpaceOnUse">
      <stop stop-color="#1F3B64"/>
      <stop offset="1" stop-color="#1F3B64" stop-opacity="0"/>
    </linearGradient>
    <linearGradient id="z" x1="298.128" x2="105.64" y1="530.329" y2="39.847" gradientUnits="userSpaceOnUse">
      <stop stop-color="#1F3B64"/>
      <stop offset="1" stop-color="#1F3B64" stop-opacity="0"/>
    </linearGradient>
    <linearGradient id="A" x1="298.128" x2="105.64" y1="530.329" y2="39.847" gradientUnits="userSpaceOnUse">
      <stop stop-color="#1F3B64"/>
      <stop offset="1" stop-color="#1F3B64" stop-opacity="0"/>
    </linearGradient>
    <linearGradient id="B" x1="298.128" x2="105.64" y1="530.329" y2="39.847" gradientUnits="userSpaceOnUse">
      <stop stop-color="#1F3B64"/>
      <stop offset="1" stop-color="#1F3B64" stop-opacity="0"/>
    </linearGradient>
    <linearGradient id="C" x1="298.128" x2="105.64" y1="530.329" y2="39.847" gradientUnits="userSpaceOnUse">
      <stop stop-color="#1F3B64"/>
      <stop offset="1" stop-color="#1F3B64" stop-opacity="0"/>
    </linearGradient>
    <linearGradient id="D" x1="298.128" x2="105.64" y1="530.329" y2="39.847" gradientUnits="userSpaceOnUse">
      <stop stop-color="#1F3B64"/>
      <stop offset="1" stop-color="#1F3B64" stop-opacity="0"/>
    </linearGradient>
    <linearGradient id="E" x1="298.128" x2="105.64" y1="530.329" y2="39.847" gradientUnits="userSpaceOnUse">
      <stop stop-color="#1F3B64"/>
      <stop offset="1" stop-color="#1F3B64" stop-opacity="0"/>
    </linearGradient>
    <linearGradient id="F" x1="298.128" x2="105.64" y1="530.329" y2="39.847" gradientUnits="userSpaceOnUse">
      <stop stop-color="#1F3B64"/>
      <stop offset="1" stop-color="#1F3B64" stop-opacity="0"/>
    </linearGradient>
    <linearGradient id="G" x1="298.128" x2="105.64" y1="530.329" y2="39.847" gradientUnits="userSpaceOnUse">
      <stop stop-color="#1F3B64"/>
      <stop offset="1" stop-color="#1F3B64" stop-opacity="0"/>
    </linearGradient>
    <linearGradient id="H" x1="298.128" x2="105.64" y1="530.329" y2="39.847" gradientUnits="userSpaceOnUse">
      <stop stop-color="#1F3B64"/>
      <stop offset="1" stop-color="#1F3B64" stop-opacity="0"/>
    </linearGradient>
    <linearGradient id="I" x1="298.128" x2="105.64" y1="530.329" y2="39.847" gradientUnits="userSpaceOnUse">
      <stop stop-color="#1F3B64"/>
      <stop offset="1" stop-color="#1F3B64" stop-opacity="0"/>
    </linearGradient>
    <linearGradient id="J" x1="298.128" x2="105.64" y1="530.329" y2="39.847" gradientUnits="userSpaceOnUse">
      <stop stop-color="#1F3B64"/>
      <stop offset="1" stop-color="#1F3B64" stop-opacity="0"/>
    </linearGradient>
    <linearGradient id="K" x1="298.128" x2="105.64" y1="530.329" y2="39.847" gradientUnits="userSpaceOnUse">
      <stop stop-color="#1F3B64"/>
      <stop offset="1" stop-color="#1F3B64" stop-opacity="0"/>
    </linearGradient>
    <linearGradient id="L" x1="298.128" x2="105.64" y1="530.329" y2="39.847" gradientUnits="userSpaceOnUse">
      <stop stop-color="#1F3B64"/>
      <stop offset="1" stop-color="#1F3B64" stop-opacity="0"/>
    </linearGradient>
    <linearGradient id="M" x1="298.128" x2="105.64" y1="530.329" y2="39.847" gradientUnits="userSpaceOnUse">
      <stop stop-color="#1F3B64"/>
      <stop offset="1" stop-color="#1F3B64" stop-opacity="0"/>
    </linearGradient>
    <linearGradient id="N" x1="298.128" x2="105.64" y1="530.329" y2="39.847" gradientUnits="userSpaceOnUse">
      <stop stop-color="#1F3B64"/>
      <stop offset="1" stop-color="#1F3B64" stop-opacity="0"/>
    </linearGradient>
    <linearGradient id="O" x1="298.128" x2="105.64" y1="530.329" y2="39.847" gradientUnits="userSpaceOnUse">
      <stop stop-color="#1F3B64"/>
      <stop offset="1" stop-color="#1F3B64" stop-opacity="0"/>
    </linearGradient>
    <linearGradient id="P" x1="298.128" x2="105.64" y1="530.329" y2="39.847" gradientUnits="userSpaceOnUse">
      <stop stop-color="#1F3B64"/>
      <stop offset="1" stop-color="#1F3B64" stop-opacity="0"/>
    </linearGradient>
    <linearGradient id="Q" x1="298.128" x2="105.64" y1="530.329" y2="39.847" gradientUnits="userSpaceOnUse">
      <stop stop-color="#1F3B64"/>
      <stop offset="1" stop-color="#1F3B64" stop-opacity="0"/>
    </linearGradient>
    <linearGradient id="R" x1="298.128" x2="105.64" y1="530.329" y2="39.847" gradientUnits="userSpaceOnUse">
      <stop stop-color="#1F3B64"/>
      <stop offset="1" stop-color="#1F3B64" stop-opacity="0"/>
    </linearGradient>
    <linearGradient id="S" x1="298.128" x2="105.64" y1="530.329" y2="39.847" gradientUnits="userSpaceOnUse">
      <stop stop-color="#1F3B64"/>
      <stop offset="1" stop-color="#1F3B64" stop-opacity="0"/>
    </linearGradient>
    <linearGradient id="T" x1="298.128" x2="105.64" y1="530.329" y2="39.847" gradientUnits="userSpaceOnUse">
      <stop stop-color="#1F3B64"/>
      <stop offset="1" stop-color="#1F3B64" stop-opacity="0"/>
    </linearGradient>
    <linearGradient id="U" x1="298.128" x2="105.64" y1="530.329" y2="39.847" gradientUnits="userSpaceOnUse">
      <stop stop-color="#1F3B64"/>
      <stop offset="1" stop-color="#1F3B64" stop-opacity="0"/>
    </linearGradient>
    <linearGradient id="V" x1="298.128" x2="105.64" y1="530.329" y2="39.847" gradientUnits="userSpaceOnUse">
      <stop stop-color="#1F3B64"/>
      <stop offset="1" stop-color="#1F3B64" stop-opacity="0"/>
    </linearGradient>
    <linearGradient id="W" x1="298.128" x2="105.64" y1="530.329" y2="39.847" gradientUnits="userSpaceOnUse">
      <stop stop-color="#1F3B64"/>
      <stop offset="1" stop-color="#1F3B64" stop-opacity="0"/>
    </linearGradient>
    <linearGradient id="X" x1="298.128" x2="105.64" y1="530.329" y2="39.847" gradientUnits="userSpaceOnUse">
      <stop stop-color="#1F3B64"/>
      <stop offset="1" stop-color="#1F3B64" stop-opacity="0"/>
    </linearGradient>
    <linearGradient id="Y" x1="298.128" x2="105.64" y1="530.329" y2="39.847" gradientUnits="userSpaceOnUse">
      <stop stop-color="#1F3B64"/>
      <stop offset="1" stop-color="#1F3B64" stop-opacity="0"/>
    </linearGradient>
    <linearGradient id="Z" x1="298.128" x2="105.64" y1="530.329" y2="39.847" gradientUnits="userSpaceOnUse">
      <stop stop-color="#1F3B64"/>
      <stop offset="1" stop-color="#1F3B64" stop-opacity="0"/>
    </linearGradient>
    <linearGradient id="aa" x1="298.128" x2="105.64" y1="530.329" y2="39.847" gradientUnits="userSpaceOnUse">
      <stop stop-color="#1F3B64"/>
      <stop offset="1" stop-color="#1F3B64" stop-opacity="0"/>
    </linearGradient>
    <linearGradient id="ab" x1="298.128" x2="105.64" y1="530.329" y2="39.847" gradientUnits="userSpaceOnUse">
      <stop stop-color="#1F3B64"/>
      <stop offset="1" stop-color="#1F3B64" stop-opacity="0"/>
    </linearGradient>
    <linearGradient id="ac" x1="298.128" x2="105.64" y1="530.329" y2="39.847" gradientUnits="userSpaceOnUse">
      <stop stop-color="#1F3B64"/>
      <stop offset="1" stop-color="#1F3B64" stop-opacity="0"/>
    </linearGradient>
    <linearGradient id="ad" x1="298.128" x2="105.64" y1="530.329" y2="39.847" gradientUnits="userSpaceOnUse">
      <stop stop-color="#1F3B64"/>
      <stop offset="1" stop-color="#1F3B64" stop-opacity="0"/>
    </linearGradient>
    <linearGradient id="ae" x1="298.128" x2="105.64" y1="530.329" y2="39.847" gradientUnits="userSpaceOnUse">
      <stop stop-color="#1F3B64"/>
      <stop offset="1" stop-color="#1F3B64" stop-opacity="0"/>
    </linearGradient>
    <linearGradient id="af" x1="298.128" x2="105.64" y1="530.329" y2="39.847" gradientUnits="userSpaceOnUse">
      <stop stop-color="#1F3B64"/>
      <stop offset="1" stop-color="#1F3B64" stop-opacity="0"/>
    </linearGradient>
    <linearGradient id="ag" x1="298.128" x2="105.64" y1="530.329" y2="39.847" gradientUnits="userSpaceOnUse">
      <stop stop-color="#1F3B64"/>
      <stop offset="1" stop-color="#1F3B64" stop-opacity="0"/>
    </linearGradient>
    <linearGradient id="ah" x1="298.128" x2="105.64" y1="530.329" y2="39.847" gradientUnits="userSpaceOnUse">
      <stop stop-color="#1F3B64"/>
      <stop offset="1" stop-color="#1F3B64" stop-opacity="0"/>
    </linearGradient>
    <linearGradient id="ai" x1="298.128" x2="105.64" y1="530.329" y2="39.847" gradientUnits="userSpaceOnUse">
      <stop stop-color="#1F3B64"/>
      <stop offset="1" stop-color="#1F3B64" stop-opacity="0"/>
    </linearGradient>
    <linearGradient id="aj" x1="298.128" x2="105.64" y1="530.329" y2="39.847" gradientUnits="userSpaceOnUse">
      <stop stop-color="#1F3B64"/>
      <stop offset="1" stop-color="#1F3B64" stop-opacity="0"/>
    </linearGradient>
    <linearGradient id="ak" x1="298.128" x2="105.64" y1="530.329" y2="39.847" gradientUnits="userSpaceOnUse">
      <stop stop-color="#1F3B64"/>
      <stop offset="1" stop-color="#1F3B64" stop-opacity="0"/>
    </linearGradient>
    <linearGradient id="al" x1="298.128" x2="105.64" y1="530.329" y2="39.847" gradientUnits="userSpaceOnUse">
      <stop stop-color="#1F3B64"/>
      <stop offset="1" stop-color="#1F3B64" stop-opacity="0"/>
    </linearGradient>
    <linearGradient id="am" x1="298.128" x2="105.64" y1="530.329" y2="39.847" gradientUnits="userSpaceOnUse">
      <stop stop-color="#1F3B64"/>
      <stop offset="1" stop-color="#1F3B64" stop-opacity="0"/>
    </linearGradient>
    <linearGradient id="an" x1="298.128" x2="105.64" y1="530.329" y2="39.847" gradientUnits="userSpaceOnUse">
      <stop stop-color="#1F3B64"/>
      <stop offset="1" stop-color="#1F3B64" stop-opacity="0"/>
    </linearGradient>
    <linearGradient id="ao" x1="298.128" x2="105.64" y1="530.329" y2="39.847" gradientUnits="userSpaceOnUse">
      <stop stop-color="#1F3B64"/>
      <stop offset="1" stop-color="#1F3B64" stop-opacity="0"/>
    </linearGradient>
    <linearGradient id="ap" x1="298.128" x2="105.64" y1="530.329" y2="39.847" gradientUnits="userSpaceOnUse">
      <stop stop-color="#1F3B64"/>
      <stop offset="1" stop-color="#1F3B64" stop-opacity="0"/>
    </linearGradient>
    <linearGradient id="aq" x1="298.128" x2="105.64" y1="530.329" y2="39.847" gradientUnits="userSpaceOnUse">
      <stop stop-color="#1F3B64"/>
      <stop offset="1" stop-color="#1F3B64" stop-opacity="0"/>
    </linearGradient>
    <linearGradient id="ar" x1="298.128" x2="105.64" y1="530.329" y2="39.847" gradientUnits="userSpaceOnUse">
      <stop stop-color="#1F3B64"/>
      <stop offset="1" stop-color="#1F3B64" stop-opacity="0"/>
    </linearGradient>
    <linearGradient id="as" x1="298.128" x2="105.64" y1="530.329" y2="39.847" gradientUnits="userSpaceOnUse">
      <stop stop-color="#1F3B64"/>
      <stop offset="1" stop-color="#1F3B64" stop-opacity="0"/>
    </linearGradient>
    <linearGradient id="at" x1="298.128" x2="105.64" y1="530.329" y2="39.847" gradientUnits="userSpaceOnUse">
      <stop stop-color="#1F3B64"/>
      <stop offset="1" stop-color="#1F3B64" stop-opacity="0"/>
    </linearGradient>
    <linearGradient id="au" x1="298.128" x2="105.64" y1="530.329" y2="39.847" gradientUnits="userSpaceOnUse">
      <stop stop-color="#1F3B64"/>
      <stop offset="1" stop-color="#1F3B64" stop-opacity="0"/>
    </linearGradient>
    <linearGradient id="av" x1="298.128" x2="105.64" y1="530.329" y2="39.847" gradientUnits="userSpaceOnUse">
      <stop stop-color="#1F3B64"/>
      <stop offset="1" stop-color="#1F3B64" stop-opacity="0"/>
    </linearGradient>
    <linearGradient id="aw" x1="298.128" x2="105.64" y1="530.329" y2="39.847" gradientUnits="userSpaceOnUse">
      <stop stop-color="#1F3B64"/>
      <stop offset="1" stop-color="#1F3B64" stop-opacity="0"/>
    </linearGradient>
    <linearGradient id="ax" x1="298.128" x2="105.64" y1="530.329" y2="39.847" gradientUnits="userSpaceOnUse">
      <stop stop-color="#1F3B64"/>
      <stop offset="1" stop-color="#1F3B64" stop-opacity="0"/>
    </linearGradient>
    <linearGradient id="ay" x1="298.128" x2="105.64" y1="530.329" y2="39.847" gradientUnits="userSpaceOnUse">
      <stop stop-color="#1F3B64"/>
      <stop offset="1" stop-color="#1F3B64" stop-opacity="0"/>
    </linearGradient>
    <linearGradient id="az" x1="298.128" x2="105.64" y1="530.329" y2="39.847" gradientUnits="userSpaceOnUse">
      <stop stop-color="#1F3B64"/>
      <stop offset="1" stop-color="#1F3B64" stop-opacity="0"/>
    </linearGradient>
    <linearGradient id="aA" x1="298.128" x2="105.64" y1="530.329" y2="39.847" gradientUnits="userSpaceOnUse">
      <stop stop-color="#1F3B64"/>
      <stop offset="1" stop-color="#1F3B64" stop-opacity="0"/>
    </linearGradient>
    <linearGradient id="aB" x1="298.128" x2="105.64" y1="530.329" y2="39.847" gradientUnits="userSpaceOnUse">
      <stop stop-color="#1F3B64"/>
      <stop offset="1" stop-color="#1F3B64" stop-opacity="0"/>
    </linearGradient>
    <linearGradient id="aC" x1="298.128" x2="105.64" y1="530.329" y2="39.847" gradientUnits="userSpaceOnUse">
      <stop stop-color="#1F3B64"/>
      <stop offset="1" stop-color="#1F3B64" stop-opacity="0"/>
    </linearGradient>
    <linearGradient id="aD" x1="298.128" x2="105.64" y1="530.329" y2="39.847" gradientUnits="userSpaceOnUse">
      <stop stop-color="#1F3B64"/>
      <stop offset="1" stop-color="#1F3B64" stop-opacity="0"/>
    </linearGradient>
    <linearGradient id="aE" x1="298.128" x2="105.64" y1="530.329" y2="39.847" gradientUnits="userSpaceOnUse">
      <stop stop-color="#1F3B64"/>
      <stop offset="1" stop-color="#1F3B64" stop-opacity="0"/>
    </linearGradient>
    <linearGradient id="aF" x1="298.128" x2="105.64" y1="530.329" y2="39.847" gradientUnits="userSpaceOnUse">
      <stop stop-color="#1F3B64"/>
      <stop offset="1" stop-color="#1F3B64" stop-opacity="0"/>
    </linearGradient>
    <linearGradient id="aG" x1="298.128" x2="105.64" y1="530.329" y2="39.847" gradientUnits="userSpaceOnUse">
      <stop stop-color="#1F3B64"/>
      <stop offset="1" stop-color="#1F3B64" stop-opacity="0"/>
    </linearGradient>
    <linearGradient id="aH" x1="298.128" x2="105.64" y1="530.329" y2="39.847" gradientUnits="userSpaceOnUse">
      <stop stop-color="#1F3B64"/>
      <stop offset="1" stop-color="#1F3B64" stop-opacity="0"/>
    </linearGradient>
    <linearGradient id="aI" x1="298.128" x2="105.64" y1="530.329" y2="39.847" gradientUnits="userSpaceOnUse">
      <stop stop-color="#1F3B64"/>
      <stop offset="1" stop-color="#1F3B64" stop-opacity="0"/>
    </linearGradient>
    <linearGradient id="aJ" x1="298.128" x2="105.64" y1="530.329" y2="39.847" gradientUnits="userSpaceOnUse">
      <stop stop-color="#1F3B64"/>
      <stop offset="1" stop-color="#1F3B64" stop-opacity="0"/>
    </linearGradient>
  </defs>
</svg>
