<svg xmlns="http://www.w3.org/2000/svg" width="48" height="48" fill="none" viewBox="0 0 48 48">
  <path fill="#fff" d="M29.884 5.186c-.133.05-2.129 1.963-4.44 4.259-2.313 2.295-4.242 4.141-4.292 4.091-.05-.066-.133-1.846-.183-3.992-.067-2.162-.183-3.992-.283-4.108-.116-.15-1.247-.2-4.624-.2h-4.474l-.266.416c-.217.35-.25.715-.15 2.362.25 4.458 1.247 8.466 2.744 11.045l.799 1.363-.383.766c-.865 1.73-.882 4.208-.017 6.088l.383.848-.4.565c-1.762 2.529-2.943 6.886-3.16 11.66-.133 3.21-.532 2.978 4.924 2.978h4.325l.332-.433c.333-.416.35-.648.35-4.158 0-2.03.066-3.743.133-3.793.083-.05 2.029 1.83 4.358 4.159l4.208 4.225h5.722c5.489 0 5.722-.017 6.038-.333.715-.715.515-1.015-2.529-4.142-7.85-8-11.277-11.41-12.192-12.109-3.31-2.511-6.803-2.827-9.73-.881-.416.266-.799.499-.865.499-.133 0-.4-.832-.533-1.68-.133-.765.183-2.312.5-2.429.133-.05.382.034.532.167.532.482 2.096 1.097 3.243 1.28 1.863.3 3.593-.083 5.755-1.264.932-.499 2.213-1.713 8.45-8.017 4.042-4.092 7.435-7.602 7.552-7.801.266-.516.05-1.198-.45-1.38-.432-.167-10.928-.217-11.377-.05ZM18.89 7.282c.116.167.15 1.48.066 4.491l-.1 4.258-1.297 1.281c-.915.898-1.364 1.248-1.564 1.164-.432-.166-1.563-2.794-2.079-4.84-.482-1.896-.965-5.805-.782-6.304.1-.233.466-.266 2.828-.266 2.08 0 2.778.05 2.928.216Zm19.311.083c0 .067-2.894 3.011-6.437 6.554-6.088 6.038-6.52 6.437-7.735 7.036-2.212 1.081-4.474.948-6.038-.333l-.498-.416 6.403-6.42c3.527-3.527 6.537-6.47 6.687-6.52.383-.15 7.618-.05 7.618.1ZM23.181 27.06c.532.183 1.38.632 1.896.982.882.598 12.958 12.69 12.958 12.974 0 .083-1.664.15-3.693.15h-3.71l-6.536-6.504c-7.053-7.02-6.753-6.654-5.622-7.27a5.503 5.503 0 0 1 4.707-.332Zm-5.672 4.075 1.397 1.298-.033 4.408-.05 4.407-2.495.05c-3.426.067-3.26.134-3.16-1.347.25-3.144.732-5.572 1.53-7.601.432-1.081 1.181-2.495 1.33-2.495.034 0 .7.582 1.481 1.28Z"/>
</svg>
